PathFileType	4	(X/Y/Z)	25_coords_data.trc
DataRate	CameraRate	NumFrames	NumMarkers	Units	OrigDataRate	OrigDataStartFrame	OrigNumFrames
30.0	30.0	7	21	m	30.0	21	80
Frame#	Time	THUMB_TIP	THUMB_IP	THUMB_MCP	THUMB_CMC	INDEX_TIP	INDEX_DIP	INDEX_PIP	INDEX_MCP	MIDDLE_TIP	MIDDLE_DIP	MIDDLE_PIP	MIDDLE_MCP	RING_TIP	RING_DIP	RING_PIP	RING_MCP	PINKY_TIP	PINKY_DIP	PINKY_PIP	PINKY_MCP	WRIST
X1	Y1	Z1	X2	Y2	Z2	X3	Y3	Z3	X4	Y4	Z4	X5	Y5	Z5	X6	Y6	Z6	X7	Y7	Z7	X8	Y8	Z8	X9	Y9	Z9	X10	Y10	Z10	X11	Y11	Z11	X12	Y12	Z12	X13	Y13	Z13	X14	Y14	Z14	X15	Y15	Z15	X16	Y16	Z16	X17	Y17	Z17	X18	Y18	Z18	X19	Y19	Z19	X20	Y20	Z20	X21	Y21	Z21
19	0.6666666666666637	0.5306815718186187	-0.009203748160908742	-0.15144901637220348	0.5126621747996392	-0.01279730432301085	-0.1376509119668074	0.48851655659591264	-0.019223982983818222	-0.1190900142797181	0.47644445820273873	-0.026098051657048815	-0.07670013789087693	0.5706451230473992	0.014301490954649276	-0.15927282170577411	0.5557033186936702	0.019307896203647923	-0.15034654649504475	0.5353209457556986	0.02610686243874072	-0.13729500388309607	0.501045801126532	0.02181806877428516	-0.11238603353999588	0.5869417121553346	0.013992685442786756	-0.140274092512789	0.5728420706805226	0.021810572376202098	-0.13202298627313247	0.550223728261333	0.03238968201741543	-0.1169929305377908	0.5129799201611874	0.025743218329504436	-0.09322591138004171	0.5908135116990351	0.01124997541704209	-0.12181995292593206	0.5775092948162154	0.01853494173188419	-0.11207690007138432	0.5583775432067738	0.026838654665931605	-0.0984679173443922	0.5239655453050571	0.020873761193248463	-0.0780974661890595	0.5894326140881286	0.0068366252739556765	-0.10642797100840362	0.5763026625872149	0.008801168859079	-0.09562311367080767	0.5591698558162191	0.010363068552151078	-0.08358818864002726	0.5285714252037205	0.006962231449570644	-0.06479846266933192	0.462283081001861	-0.023011742144276925	-0.05198982011943104
20	0.6999999999999968	0.5304928310612276	-0.009235821023176438	-0.1515728204991238	0.5124795250889433	-0.012795226318553676	-0.13775792122724684	0.4883775459158971	-0.019217466997892285	-0.1191388604400132	0.47640955587706924	-0.026096579965888322	-0.07672029116659174	0.5705358577894452	0.014256611161099775	-0.1594056517767839	0.5556010312233902	0.019268510750684587	-0.1504707864758527	0.5352325962323077	0.026068168083456134	-0.1373978621981357	0.5009823929393211	0.02178070509159613	-0.1124543794925767	0.5868500677528987	0.013971758641144416	-0.14043970657863875	0.5727532547359471	0.02178363320557175	-0.1321780797076918	0.5501504660627642	0.03236872476346353	-0.11712884946470314	0.5129262148956686	0.025705983926536224	-0.09333576369196384	0.5907402296891322	0.011263335784122419	-0.12200493216028985	0.5774468196679224	0.0185459232919436	-0.11224536407563934	0.5583176405848911	0.0268325227287578	-0.09862234104904555	0.5239280660637918	0.02085463083243677	-0.07821786098378386	0.5893618405267802	0.0068016545935116746	-0.10663517169914599	0.5762473326907047	0.008774427812263785	-0.0958130716236113	0.5591339956721945	0.010322351890721726	-0.08374867581867279	0.528552761216277	0.006948691010961849	-0.06492608400934469	0.4622830810018608	-0.023011742144276925	-0.05198982011943093
21	0.7333333333333302	0.5303793979490736	-0.009322943710864728	-0.151656586943065	0.5123576950217743	-0.012848481423615166	-0.13784395477406314	0.4882882360511829	-0.019261641995680034	-0.11917975062976782	0.47636634934041366	-0.02611006739309074	-0.07674323702613056	0.5704639781331913	0.014189530755619129	-0.15950968165118168	0.5555392207630507	0.019213328332376878	-0.1505646788367494	0.5351807338114664	0.02601881283778662	-0.13747929681371346	0.5009457620886606	0.021730315871304806	-0.11251509045927127	0.5867872396842955	0.01394997497278383	-0.14056369362761106	0.5726968237679799	0.021768883566711472	-0.1322978090587918	0.5500968208931183	0.03234019020248147	-0.11723471189822166	0.5128837245701485	0.025674240083973232	-0.09342508166012409	0.5906796227172073	0.011233258434260818	-0.122136825322254	0.5773995526503404	0.018531412431641026	-0.11237072644657026	0.5582747327983478	0.02682189978115812	-0.0987439489795266	0.5239053603752458	0.020831945346427183	-0.07830899071893871	0.5893136410257646	0.006766682547518332	-0.10679099926056929	0.5762090733535097	0.008743712142012416	-0.09595764058904988	0.5591129658218035	0.010292107293963793	-0.08386890208092773	0.5285450041614815	0.006923457369277908	-0.0650238664317706	0.4622830810018609	-0.023011742144276925	-0.05198982011943104
22	0.7666666666666633	0.5302893504874204	-0.009412189676691995	-0.15172301828882834	0.5122663499162695	-0.01290580146151521	-0.13790396886025902	0.4882128715175973	-0.019307879511924253	-0.11921537411477118	0.4763381700631665	-0.02611374281621115	-0.07675878817040327	0.5704246044205457	0.014083219118962154	-0.15955345343215527	0.5555079483588556	0.0191508596776373	-0.15061967533409848	0.5351568679336338	0.02595420203794574	-0.13752166436851354	0.5009215426537889	0.02170153531259711	-0.11255181409450665	0.5867496254251043	0.013907737394181496	-0.14062400975956268	0.5726698116552352	0.021749119518301496	-0.13236134853031345	0.5500738558043407	0.03231045130284338	-0.11728518853775399	0.5128607513428143	0.025658432041188672	-0.09347167520859367	0.5906556888022254	0.011205919541876885	-0.12220279081405822	0.5773797328449775	0.018507307923261274	-0.11243351647430333	0.5582577820153167	0.026802470609350593	-0.09880555802560853	0.5238948347461524	0.020816995977188446	-0.07835848531569767	0.58928757785767	0.006703508565800154	-0.1068617303579551	0.5761859711426738	0.008678775570549524	-0.09602446955342003	0.5591091713051393	0.010294993877316694	-0.08391733262127737	0.5285384258260561	0.006913944909574199	-0.0650790344037937	0.462283081001861	-0.023011742144276925	-0.05198982011943093
23	0.7999999999999965	0.5302236023642459	-0.00943789988463306	-0.1517802513329523	0.5122123868551101	-0.012925056167390259	-0.13794421660680717	0.48817180893837	-0.019310815990353336	-0.11923345272842473	0.47631354211950083	-0.026117049515645974	-0.07677233294512542	0.570413320682414	0.013991760350005267	-0.1595735949890827	0.5555002290167284	0.01909564825103749	-0.1506545129026483	0.5351541526941512	0.025891505784571556	-0.13754484732110983	0.5009157044541621	0.02167846809555196	-0.11257256129142323	0.5867272841815916	0.01383830399743391	-0.1406487570359387	0.5726375947697275	0.021653686857780796	-0.13237830100114834	0.5500678546868817	0.03228416494970665	-0.11731147259800173	0.5128495929590869	0.025643425547147936	-0.09350287131298962	0.5906360015985264	0.011131834911455973	-0.12222539193733728	0.5773741490233042	0.018455651031250686	-0.11245375012459619	0.5582546381787339	0.026768472846337987	-0.09883313055223575	0.5238884891865248	0.020811002877770157	-0.07838326040548654	0.5892829203965102	0.0066196125214486035	-0.10689153823052822	0.5761779986552991	0.00858970641599821	-0.09605734438865016	0.5591168000351058	0.010269100952941868	-0.08393681821890003	0.5285373006250191	0.006902837274724738	-0.0651100836194739	0.4622830810018609	-0.023011742144276925	-0.051989820119430985
24	0.8333333333333297	0.5302300824160795	-0.009537104592711398	-0.15178154920770526	0.5122083114547725	-0.01299206314133372	-0.13795118287685582	0.4881638412118834	-0.019352370468200153	-0.11923675150834706	0.47629545805054374	-0.026154647792062558	-0.07677782424510948	0.5704371907876638	0.013890070325672133	-0.15956390752840965	0.5555302691793074	0.019039027282473198	-0.15066042897116388	0.5351807473848724	0.025837491650834044	-0.13755746449857448	0.5009354028041886	0.02163356483982981	-0.11259310053876265	0.5867559704441178	0.013770900138638242	-0.14062126865016228	0.5726792066888954	0.021614404682342325	-0.13235542576195364	0.5501085778041116	0.032248417548246255	-0.11729242366698078	0.5128773388077453	0.02561532852148163	-0.09350198664370457	0.5906648149082471	0.011050693164084469	-0.12217271423310805	0.57741075207945	0.018394469551252235	-0.11240548499930891	0.5582987978484163	0.0267352681274714	-0.09879136499169144	0.523922845451695	0.020777920171413	-0.0783579429545288	0.5893159103975246	0.0065119143221854525	-0.10685406862958552	0.5762082530771209	0.008476196658485091	-0.09602212907684754	0.5591540600042322	0.010192151068307065	-0.0838968654468869	0.5285615658498902	0.006859964062479129	-0.06508518603821256	0.4622830810018608	-0.023011742144276925	-0.05198982011943093
25	0.8666666666666629	0.530223344550132	-0.009521782433233872	-0.15180523027116538	0.51220440028066	-0.012967666178439252	-0.13796891816756657	0.48817776901732124	-0.01933564101469165	-0.11923419408044961	0.476295607402652	-0.026140483075713372	-0.07677953167586282	0.5704777425925265	0.01386990991715864	-0.15951477546956272	0.5555636535138957	0.01902210497023482	-0.15062518419157217	0.5352148300388272	0.02583488560779823	-0.13752857256241613	0.500956091083159	0.021629600034050456	-0.1125828219741774	0.5867965499549406	0.01373730943609175	-0.14057308367171695	0.5727134844106154	0.021574579195062893	-0.13231206269369278	0.5501496782709357	0.032223765574968755	-0.11724955852151114	0.5129023803074818	0.02560866416416141	-0.09347925880218905	0.5907055186225738	0.011069390004988855	-0.12213308317118204	0.5774438091602316	0.018386427257588434	-0.11235617016244065	0.5583295794471264	0.026727803134175665	-0.09874559890476992	0.5239387365245067	0.02076748103769599	-0.078338117002832	0.5893348314389926	0.006474330864944644	-0.1068238486758728	0.5762248079998151	0.00842497798384445	-0.09599230856184743	0.5591693636451456	0.010158666000592675	-0.08387132829103766	0.5285664165261219	0.006855154861603707	-0.06507159710187382	0.462283081001861	-0.023011742144276925	-0.05198982011943104
